<?xml version="1.0" encoding="UTF-8"?>
<svg id="Livello_2" data-name="Livello 2" xmlns="http://www.w3.org/2000/svg" xmlns:xlink="http://www.w3.org/1999/xlink" viewBox="0 0 359.54 81.05">
  <defs>
    <style>
      .cls-1 {
        fill: #fff;
      }

      .cls-2 {
        fill: url(#Sfumatura_senza_nome_17);
      }

      .cls-3 {
        fill: #d9e2e6;
      }
    </style>
    <linearGradient id="Sfumatura_senza_nome_17" data-name="Sfumatura senza nome 17" x1="305.72" y1="12.45" x2="359.54" y2="12.45" gradientUnits="userSpaceOnUse">
      <stop offset="0" stop-color="#005ace"/>
      <stop offset="1" stop-color="#006be0"/>
    </linearGradient>
  </defs>
  <g id="WLP_Brand_Assets" data-name="WLP Brand Assets">
    <g id="WLP_Logo" data-name="WLP Logo">
      <g id="WLP_Logo_Extended_Dark" data-name="WLP Logo Extended Dark">
        <g>
          <g>
            <path class="cls-1" d="M202.11,.7h9.96V55.94h-9.96V.7Z"/>
            <path class="cls-1" d="M218.91,6.07c0-3.42,2.88-6.07,6.15-6.07s5.99,2.65,5.99,6.07c0,3.19-2.72,5.99-5.99,5.99s-6.15-2.8-6.15-5.99Zm1.17,10.97h9.96V55.94h-9.96V17.04Z"/>
            <path class="cls-1" d="M279.52,44.58V24.9h-8.32v-7.86h6.02c1.79,0,3.24-1.45,3.24-3.24V6.07h9.02v10.97h10.19v7.86h-10.19v18.36c0,2.18,.54,4.82,5.21,4.82h3.81v7.86h-6.85c-10.89,0-12.14-7.08-12.14-11.36Z"/>
            <path class="cls-1" d="M244.47,43.07c.35,3.46,3.06,5.85,7.86,5.85,4.1,0,6.61-1.46,6.61-4.23,0-3.23-2.43-3.73-8.21-4.57-8.35-1.08-14.82-2.89-14.82-11.05s6.19-13.01,15.37-12.93c9.6,0,16.21,4.69,16.69,12.78h-9.06c-.28-3.16-3.12-5.35-7.08-5.35s-6.54,1.81-6.54,4.35c0,3,3.06,3.52,8.21,4.22,8.21,.92,15.03,2.79,15.03,11.72,0,7.85-6.68,12.86-16.28,12.86s-16.69-5.16-17.11-13.63h9.32Z"/>
          </g>
          <g>
            <path class="cls-1" d="M111.32,6.07c0-3.42,2.88-6.07,6.15-6.07s5.99,2.65,5.99,6.07c0,3.19-2.72,5.99-5.99,5.99s-6.15-2.8-6.15-5.99Zm1.17,10.97h9.96V55.94h-9.96V17.04Z"/>
            <path class="cls-1" d="M50.96,17.04l-3.77,31.42c-.06,.46-.45,.81-.91,.81s-.83-.32-.9-.76l-5.5-31.47H22.09l-5.5,31.47c-.08,.44-.46,.76-.9,.76s-.86-.35-.91-.81l-3.77-31.42H0L6.16,55.94H24.56l5.5-31.45c.08-.45,.47-.78,.93-.78s.85,.33,.93,.78l5.5,31.45h18.4l6.16-38.9h-11Z"/>
            <path class="cls-1" d="M135.44,44.58V24.9h-8.32v-7.86h6.02c1.79,0,3.24-1.45,3.24-3.24V6.07h9.02v10.97h10.19v7.86h-10.19v18.36c0,2.18,.54,4.82,5.21,4.82h3.81v7.86h-6.85c-10.89,0-12.14-7.08-12.14-11.36Z"/>
            <path class="cls-1" d="M104.71,33.76v22.17h-10.47v-21.24c0-6.54-2.62-9.8-7.82-9.8s-8.44,3.66-8.44,10.5v20.54h-10.47V1.48h10.47V21.63c2.45-3.11,5.86-5.35,11.28-5.35,8.46,0,15.44,3.95,15.44,17.49Z"/>
            <path class="cls-1" d="M195.66,43.59c-1.56,8.04-7.77,13.11-17.68,13.11-11.62,0-20.05-7.88-20.05-19.89,0-12.87,8.89-20.67,19.66-20.67,9.6,0,18.77,6.08,18.77,20.05,0,.94-.08,1.79-.16,2.89h-28.37c.39,5.62,4.06,9.67,10.14,9.67,4.01,0,6.99-1.79,8.09-5.15h9.6Zm-27.75-11.23h18.93c-.23-4.84-4.11-8.27-9.26-8.27s-8.97,3.59-9.67,8.27Z"/>
          </g>
        </g>
        <g>
          <path class="cls-2" d="M311.72,0h41.82c3.31,0,6,2.69,6,6v12.9c0,3.31-2.69,6-6,6h-47.82V6c0-3.31,2.69-6,6-6Z"/>
          <g>
            <path class="cls-1" d="M312.09,6.23h3.16l.22,2.1c.84-1.6,2.66-2.52,4.76-2.52,3.89,0,6.47,2.83,6.47,7.17s-2.35,7.45-6.47,7.45c-2.07,0-3.86-.81-4.73-2.21v6.68h-3.42V6.23Zm7.34,11.12c2.41,0,3.84-1.74,3.84-4.2s-1.43-4.23-3.84-4.23-3.89,1.74-3.89,4.23,1.54,4.2,3.89,4.2Z"/>
            <path class="cls-1" d="M338.01,9.34h-1.26c-2.46,0-4,1.32-4,4v6.72h-3.42V6.26h3.22l.2,2.02c.59-1.37,1.9-2.3,3.75-2.3,.48,0,.95,.06,1.51,.2v3.16Z"/>
            <path class="cls-1" d="M346.59,5.84c4.28,0,7.39,2.97,7.39,7.28s-3.11,7.28-7.39,7.28-7.39-2.97-7.39-7.28,3.11-7.28,7.39-7.28Zm0,11.51c2.35,0,3.98-1.71,3.98-4.23s-1.62-4.23-3.98-4.23-3.98,1.71-3.98,4.23,1.62,4.23,3.98,4.23Z"/>
          </g>
        </g>
        <g>
          <path class="cls-3" d="M9.99,68.33l4.03,9.92,3.96-9.92h2.63v12.6h-2v-9.27l-3.78,9.27h-1.75l-3.78-9.27v9.27h-2v-12.6h2.68Z"/>
          <path class="cls-3" d="M29.13,68.33h2.47l4.7,12.6h-2.21l-1.19-3.12h-5.17l-1.17,3.12h-2.14l4.72-12.6Zm3.19,7.72l-2.02-5.49-2,5.49h4.02Z"/>
          <path class="cls-3" d="M42.16,68.33v6.5l5.78-6.5h2.52l-4.63,5.26,4.97,7.35h-2.5l-3.94-5.76-2.2,2.47v3.29h-2.07v-12.6h2.07Z"/>
          <path class="cls-3" d="M56.58,68.33v12.6h-2.07v-12.6h2.07Z"/>
          <path class="cls-3" d="M61.55,68.33h1.89l6.14,8.93v-8.93h2.03v12.6h-1.89l-6.14-8.93v8.93h-2.03v-12.6Z"/>
          <path class="cls-3" d="M78.93,69.03c.92-.53,2-.8,3.24-.8,1.45,0,2.66,.4,3.62,1.19,.96,.79,1.55,1.86,1.76,3.21h-2.05c-.2-.8-.6-1.43-1.2-1.89-.59-.46-1.32-.68-2.19-.68-.79,0-1.49,.2-2.08,.59-.59,.39-1.05,.93-1.38,1.62-.32,.69-.49,1.49-.49,2.39s.16,1.7,.48,2.39c.32,.69,.77,1.23,1.37,1.62,.59,.39,1.29,.58,2.08,.58,1.01,0,1.85-.28,2.53-.83,.68-.55,1.04-1.32,1.09-2.3v-.31h-3.49v-1.75h5.47v6.9h-1.57l-.22-1.8c-.36,.53-.87,.98-1.54,1.35s-1.46,.56-2.37,.56c-1.16,0-2.2-.27-3.1-.8-.9-.53-1.6-1.29-2.11-2.26-.5-.97-.76-2.09-.76-3.35s.25-2.39,.75-3.36c.5-.97,1.21-1.72,2.13-2.25Z"/>
          <path class="cls-3" d="M103.36,68.33h2.47l4.7,12.6h-2.21l-1.19-3.12h-5.17l-1.17,3.12h-2.14l4.72-12.6Zm3.19,7.72l-2.02-5.49-2,5.49h4.02Z"/>
          <path class="cls-3" d="M118.33,68.33c1.28,0,2.41,.26,3.37,.79,.96,.53,1.7,1.27,2.21,2.21s.77,2.05,.77,3.29-.26,2.33-.77,3.29-1.25,1.7-2.21,2.22c-.96,.53-2.08,.79-3.37,.79h-4.02v-12.6h4.02Zm3.13,9.59c.73-.81,1.1-1.91,1.1-3.29s-.37-2.48-1.1-3.29c-.73-.81-1.78-1.21-3.13-1.21h-1.94v9h1.94c1.36,0,2.4-.41,3.13-1.21Z"/>
          <path class="cls-3" d="M129.59,68.33l3.48,10.12,3.51-10.12h2.14l-4.41,12.6h-2.48l-4.43-12.6h2.2Z"/>
          <path class="cls-3" d="M150.7,68.33v1.84h-6.16v3.49h5.08v1.78h-5.08v3.65h6.37v1.84h-8.44v-12.6h8.23Z"/>
          <path class="cls-3" d="M162.36,68.83c.66,.33,1.17,.8,1.54,1.4,.37,.61,.55,1.31,.55,2.12s-.22,1.58-.67,2.21c-.44,.64-1.04,1.09-1.78,1.35l2.66,5.02h-2.3l-2.39-4.57h-2.81v4.57h-2.07v-12.6h4.97c.88,0,1.64,.17,2.3,.5Zm-2.47,5.73c.74,0,1.34-.2,1.77-.6,.44-.4,.66-.94,.66-1.61s-.22-1.21-.66-1.61-1.03-.6-1.77-.6h-2.74v4.43h2.74Z"/>
          <path class="cls-3" d="M177.79,68.33v1.84h-3.89v10.77h-2.07v-10.77h-3.89v-1.84h9.85Z"/>
          <path class="cls-3" d="M183.78,68.33v12.6h-2.07v-12.6h2.07Z"/>
          <path class="cls-3" d="M191.17,78.62c.55,.45,1.26,.67,2.13,.67,.77,0,1.39-.17,1.86-.5s.71-.79,.71-1.38c0-.42-.13-.75-.39-1-.26-.25-.61-.43-1.05-.57-.44-.13-1.07-.27-1.87-.41-.82-.14-1.52-.33-2.1-.57-.58-.23-1.06-.59-1.42-1.07-.37-.48-.55-1.11-.55-1.89,0-.72,.19-1.36,.57-1.93s.91-1,1.58-1.31,1.46-.47,2.33-.47,1.7,.17,2.41,.5c.71,.34,1.27,.8,1.67,1.39,.41,.59,.63,1.26,.67,2.02h-2.03c-.07-.65-.35-1.17-.85-1.57-.49-.4-1.12-.59-1.87-.59s-1.32,.16-1.76,.48c-.44,.32-.66,.76-.66,1.34,0,.41,.13,.73,.39,.97,.26,.24,.6,.42,1.04,.54s1.05,.25,1.85,.4c.82,.14,1.52,.34,2.11,.58,.59,.24,1.07,.59,1.44,1.06,.37,.47,.56,1.09,.56,1.85s-.2,1.41-.59,2-.95,1.05-1.66,1.38c-.71,.33-1.51,.5-2.41,.5-1,0-1.87-.18-2.63-.54-.76-.36-1.35-.86-1.77-1.5s-.65-1.38-.66-2.21l2.03,.04c.06,.74,.36,1.34,.91,1.79Z"/>
          <path class="cls-3" d="M204.48,68.33v12.6h-2.07v-12.6h2.07Z"/>
          <path class="cls-3" d="M209.45,68.33h1.89l6.14,8.93v-8.93h2.03v12.6h-1.89l-6.14-8.93v8.93h-2.03v-12.6Z"/>
          <path class="cls-3" d="M226.83,69.03c.92-.53,2-.8,3.24-.8,1.45,0,2.66,.4,3.62,1.19,.96,.79,1.55,1.86,1.76,3.21h-2.05c-.2-.8-.6-1.43-1.2-1.89-.59-.46-1.32-.68-2.19-.68-.79,0-1.49,.2-2.08,.59-.59,.39-1.05,.93-1.38,1.62-.32,.69-.49,1.49-.49,2.39s.16,1.7,.48,2.39c.32,.69,.77,1.23,1.37,1.62,.59,.39,1.29,.58,2.08,.58,1.01,0,1.85-.28,2.53-.83,.68-.55,1.04-1.32,1.09-2.3v-.31h-3.49v-1.75h5.47v6.9h-1.57l-.22-1.8c-.36,.53-.87,.98-1.54,1.35s-1.46,.56-2.37,.56c-1.16,0-2.2-.27-3.1-.8-.9-.53-1.6-1.29-2.11-2.26-.5-.97-.76-2.09-.76-3.35s.25-2.39,.75-3.36c.5-.97,1.21-1.72,2.13-2.25Z"/>
          <path class="cls-3" d="M255.77,68.33v1.84h-6.16v3.49h5.08v1.78h-5.08v3.65h6.37v1.84h-8.44v-12.6h8.23Z"/>
          <path class="cls-3" d="M264.18,68.33h2.47l4.7,12.6h-2.21l-1.19-3.12h-5.17l-1.17,3.12h-2.14l4.72-12.6Zm3.19,7.72l-2.02-5.49-2,5.49h4.02Z"/>
          <path class="cls-3" d="M277.28,78.62c.55,.45,1.26,.67,2.13,.67,.77,0,1.39-.17,1.86-.5s.71-.79,.71-1.38c0-.42-.13-.75-.39-1-.26-.25-.61-.43-1.05-.57-.44-.13-1.07-.27-1.87-.41-.82-.14-1.52-.33-2.1-.57-.58-.23-1.06-.59-1.42-1.07-.37-.48-.55-1.11-.55-1.89,0-.72,.19-1.36,.57-1.93s.91-1,1.58-1.31,1.46-.47,2.33-.47,1.7,.17,2.41,.5c.71,.34,1.27,.8,1.67,1.39,.41,.59,.63,1.26,.67,2.02h-2.03c-.07-.65-.35-1.17-.85-1.57-.49-.4-1.12-.59-1.87-.59s-1.32,.16-1.76,.48c-.44,.32-.66,.76-.66,1.34,0,.41,.13,.73,.39,.97,.26,.24,.6,.42,1.04,.54s1.05,.25,1.85,.4c.82,.14,1.52,.34,2.11,.58,.59,.24,1.07,.59,1.44,1.06,.37,.47,.56,1.09,.56,1.85s-.2,1.41-.59,2-.95,1.05-1.66,1.38c-.71,.33-1.51,.5-2.41,.5-1,0-1.87-.18-2.63-.54-.76-.36-1.35-.86-1.77-1.5s-.65-1.38-.66-2.21l2.03,.04c.06,.74,.36,1.34,.91,1.79Z"/>
          <path class="cls-3" d="M289.14,68.32l3.31,5.78,3.4-5.78h2.32l-4.7,7.96v4.66h-2.07v-4.66l-4.7-7.96h2.43Z"/>
        </g>
      </g>
    </g>
  </g>
</svg>