<?xml version="1.0" encoding="UTF-8"?> <svg xmlns="http://www.w3.org/2000/svg" xmlns:xlink="http://www.w3.org/1999/xlink" id="Livello_2" data-name="Livello 2" viewBox="0 0 86.21 86.61"><defs><style> .cls-1 { fill: #fff; } .cls-2 { fill: url(#Sfumatura_senza_nome_19); } </style><linearGradient id="Sfumatura_senza_nome_19" data-name="Sfumatura senza nome 19" x1="8.57" y1="73.74" x2="77.64" y2="73.74" gradientUnits="userSpaceOnUse"><stop offset="0" stop-color="#1a1c1e"></stop><stop offset="1" stop-color="#32373e"></stop></linearGradient></defs><g id="WLP_Brand_Assets" data-name="WLP Brand Assets"><g id="WLP_Logo" data-name="WLP Logo"><g id="WLP_Logo_Compressed_Dark" data-name="WLP Logo Compressed Dark"><path class="cls-1" d="M70.9,0l-5.25,43.72c-.08,.64-.62,1.12-1.27,1.12s-1.15-.45-1.26-1.06L55.48,0H30.74l-7.65,43.79c-.11,.61-.64,1.06-1.26,1.06s-1.19-.48-1.27-1.12L15.31,0H0L8.57,54.12h25.6l7.65-43.76c.11-.63,.66-1.09,1.29-1.09s1.18,.46,1.29,1.09l7.65,43.76h25.6L86.21,0h-15.31Z"></path><path class="cls-2" d="M8.57,61.28h63.07c3.31,0,6,2.69,6,6v12.94c0,3.31-2.69,6-6,6H14.57c-3.31,0-6-2.69-6-6v-18.94h0Z"></path><g><path class="cls-1" d="M22.16,67.95h3.16l.22,2.1c.84-1.6,2.66-2.52,4.76-2.52,3.89,0,6.47,2.83,6.47,7.17s-2.35,7.45-6.47,7.45c-2.07,0-3.86-.81-4.73-2.21v6.68h-3.42v-18.66Zm7.34,11.12c2.41,0,3.84-1.74,3.84-4.2s-1.43-4.23-3.84-4.23-3.89,1.74-3.89,4.23,1.54,4.2,3.89,4.2Z"></path><path class="cls-1" d="M48.07,71.06h-1.26c-2.46,0-4,1.32-4,4v6.72h-3.42v-13.8h3.22l.2,2.02c.59-1.37,1.9-2.3,3.75-2.3,.48,0,.95,.06,1.51,.2v3.16Z"></path><path class="cls-1" d="M56.66,67.56c4.28,0,7.39,2.97,7.39,7.28s-3.11,7.28-7.39,7.28-7.39-2.97-7.39-7.28,3.11-7.28,7.39-7.28Zm0,11.51c2.35,0,3.98-1.71,3.98-4.23s-1.62-4.23-3.98-4.23-3.98,1.71-3.98,4.23,1.62,4.23,3.98,4.23Z"></path></g></g></g></g></svg> 